HIERARCHY
ROOT mixamorig9:Hips
{
	OFFSET 0.000000 96.790665 0.000000
	CHANNELS 6 Xposition Yposition Zposition Xrotation Yrotation Zrotation
	JOINT mixamorig9:Spine
	{
		OFFSET 0.000000 11.752701 -0.535200
		CHANNELS 3 Xrotation Yrotation Zrotation
		JOINT mixamorig9:Spine1
		{
			OFFSET 0.000000 13.711395 -0.624381
			CHANNELS 3 Xrotation Yrotation Zrotation
			JOINT mixamorig9:Spine2
			{
				OFFSET 0.000000 15.670166 -0.713579
				CHANNELS 3 Xrotation Yrotation Zrotation
				JOINT mixamorig9:Neck
				{
					OFFSET 0.000000 17.628937 -0.802776
					CHANNELS 3 Xrotation Yrotation Zrotation
					JOINT mixamorig9:Head
					{
						OFFSET 0.000000 5.016602 1.880200
						CHANNELS 3 Xrotation Yrotation Zrotation
						JOINT mixamorig9:HeadTop_End
						{
							OFFSET 0.000000 20.743408 7.774600
							CHANNELS 3 Xrotation Yrotation Zrotation
							End Site
							{
								OFFSET 0.000000 22.152496 0.000000
							}
						}
					}
				}
				JOINT mixamorig9:LeftShoulder
				{
					OFFSET 7.849700 14.755508 -0.786346
					CHANNELS 3 Xrotation Yrotation Zrotation
					JOINT mixamorig9:LeftArm
					{
						OFFSET 15.636079 -5.611938 0.032868
						CHANNELS 3 Xrotation Yrotation Zrotation
						JOINT mixamorig9:LeftForeArm
						{
							OFFSET 22.575607 0.000000 -0.000000
							CHANNELS 3 Xrotation Yrotation Zrotation
							JOINT mixamorig9:LeftHand
							{
								OFFSET 23.494789 0.000000 -0.000001
								CHANNELS 3 Xrotation Yrotation Zrotation
								JOINT mixamorig9:LeftHandThumb1
								{
									OFFSET 3.226456 -1.228531 2.654899
									CHANNELS 3 Xrotation Yrotation Zrotation
									JOINT mixamorig9:LeftHandThumb2
									{
										OFFSET 2.698822 -1.558167 1.558164
										CHANNELS 3 Xrotation Yrotation Zrotation
										JOINT mixamorig9:LeftHandThumb3
										{
											OFFSET 2.640388 -1.524429 1.524428
											CHANNELS 3 Xrotation Yrotation Zrotation
											JOINT mixamorig9:LeftHandThumb4
											{
												OFFSET 2.346039 -1.354492 1.354488
												CHANNELS 3 Xrotation Yrotation Zrotation
												End Site
												{
													OFFSET 2.071320 -1.315002 1.775847
												}
											}
										}
									}
								}
								JOINT mixamorig9:LeftHandIndex1
								{
									OFFSET 10.149338 -0.349152 2.573102
									CHANNELS 3 Xrotation Yrotation Zrotation
									JOINT mixamorig9:LeftHandIndex2
									{
										OFFSET 3.319489 0.000000 -0.000000
										CHANNELS 3 Xrotation Yrotation Zrotation
										JOINT mixamorig9:LeftHandIndex3
										{
											OFFSET 3.068123 0.000000 -0.000000
											CHANNELS 3 Xrotation Yrotation Zrotation
											JOINT mixamorig9:LeftHandIndex4
											{
												OFFSET 2.664124 0.000000 -0.000000
												CHANNELS 3 Xrotation Yrotation Zrotation
												End Site
												{
													OFFSET 2.664101 -0.000320 -0.011596
												}
											}
										}
									}
								}
								JOINT mixamorig9:LeftHandMiddle1
								{
									OFFSET 10.136444 0.000000 -0.000000
									CHANNELS 3 Xrotation Yrotation Zrotation
									JOINT mixamorig9:LeftHandMiddle2
									{
										OFFSET 3.520729 0.000000 -0.000000
										CHANNELS 3 Xrotation Yrotation Zrotation
										JOINT mixamorig9:LeftHandMiddle3
										{
											OFFSET 3.274651 0.000000 -0.000000
											CHANNELS 3 Xrotation Yrotation Zrotation
											JOINT mixamorig9:LeftHandMiddle4
											{
												OFFSET 2.918007 0.000000 -0.000000
												CHANNELS 3 Xrotation Yrotation Zrotation
												End Site
												{
													OFFSET 2.917999 0.000122 0.004498
												}
											}
										}
									}
								}
								JOINT mixamorig9:LeftHandRing1
								{
									OFFSET 10.015709 -0.081619 -2.141669
									CHANNELS 3 Xrotation Yrotation Zrotation
									JOINT mixamorig9:LeftHandRing2
									{
										OFFSET 2.742317 0.000000 0.000000
										CHANNELS 3 Xrotation Yrotation Zrotation
										JOINT mixamorig9:LeftHandRing3
										{
											OFFSET 2.844040 0.000000 0.000000
											CHANNELS 3 Xrotation Yrotation Zrotation
											JOINT mixamorig9:LeftHandRing4
											{
												OFFSET 2.134438 0.000000 0.000000
												CHANNELS 3 Xrotation Yrotation Zrotation
												End Site
												{
													OFFSET 2.134293 0.001083 0.023975
												}
											}
										}
									}
								}
								JOINT mixamorig9:LeftHandPinky1
								{
									OFFSET 8.705978 -0.316788 -4.359827
									CHANNELS 3 Xrotation Yrotation Zrotation
									JOINT mixamorig9:LeftHandPinky2
									{
										OFFSET 2.641701 0.000000 0.000000
										CHANNELS 3 Xrotation Yrotation Zrotation
										JOINT mixamorig9:LeftHandPinky3
										{
											OFFSET 2.201149 0.000000 0.000000
											CHANNELS 3 Xrotation Yrotation Zrotation
											JOINT mixamorig9:LeftHandPinky4
											{
												OFFSET 1.796135 0.000000 0.000000
												CHANNELS 3 Xrotation Yrotation Zrotation
												End Site
												{
													OFFSET 1.796097 0.000397 0.010792
												}
											}
										}
									}
								}
							}
						}
					}
				}
				JOINT mixamorig9:RightShoulder
				{
					OFFSET -7.849700 14.755508 -0.819180
					CHANNELS 3 Xrotation Yrotation Zrotation
					JOINT mixamorig9:RightArm
					{
						OFFSET -15.636075 -5.611954 -0.032881
						CHANNELS 3 Xrotation Yrotation Zrotation
						JOINT mixamorig9:RightForeArm
						{
							OFFSET -22.570602 0.000000 0.000001
							CHANNELS 3 Xrotation Yrotation Zrotation
							JOINT mixamorig9:RightHand
							{
								OFFSET -23.493404 0.000000 0.000001
								CHANNELS 3 Xrotation Yrotation Zrotation
								JOINT mixamorig9:RightHandThumb1
								{
									OFFSET -3.430145 -1.490677 2.732846
									CHANNELS 3 Xrotation Yrotation Zrotation
									JOINT mixamorig9:RightHandThumb2
									{
										OFFSET -2.870445 -1.657257 1.657251
										CHANNELS 3 Xrotation Yrotation Zrotation
										JOINT mixamorig9:RightHandThumb3
										{
											OFFSET -2.534035 -1.463028 1.463024
											CHANNELS 3 Xrotation Yrotation Zrotation
											JOINT mixamorig9:RightHandThumb4
											{
												OFFSET -1.987206 -1.147308 1.147314
												CHANNELS 3 Xrotation Yrotation Zrotation
												End Site
												{
													OFFSET -1.636826 -1.087112 1.649439
												}
											}
										}
									}
								}
								JOINT mixamorig9:RightHandIndex1
								{
									OFFSET -10.580772 -0.429199 2.789807
									CHANNELS 3 Xrotation Yrotation Zrotation
									JOINT mixamorig9:RightHandIndex2
									{
										OFFSET -3.088730 0.000000 0.000000
										CHANNELS 3 Xrotation Yrotation Zrotation
										JOINT mixamorig9:RightHandIndex3
										{
											OFFSET -2.968605 0.000000 0.000000
											CHANNELS 3 Xrotation Yrotation Zrotation
											JOINT mixamorig9:RightHandIndex4
											{
												OFFSET -2.463318 0.000000 0.000000
												CHANNELS 3 Xrotation Yrotation Zrotation
												End Site
												{
													OFFSET -2.463303 -0.000153 -0.008599
												}
											}
										}
									}
								}
								JOINT mixamorig9:RightHandMiddle1
								{
									OFFSET -10.255600 0.000000 0.000000
									CHANNELS 3 Xrotation Yrotation Zrotation
									JOINT mixamorig9:RightHandMiddle2
									{
										OFFSET -3.480217 0.000000 0.000000
										CHANNELS 3 Xrotation Yrotation Zrotation
										JOINT mixamorig9:RightHandMiddle3
										{
											OFFSET -3.263023 0.000000 0.000000
											CHANNELS 3 Xrotation Yrotation Zrotation
											JOINT mixamorig9:RightHandMiddle4
											{
												OFFSET -2.908302 0.000000 0.000000
												CHANNELS 3 Xrotation Yrotation Zrotation
												End Site
												{
													OFFSET -2.908295 0.000061 0.003200
												}
											}
										}
									}
								}
								JOINT mixamorig9:RightHandRing1
								{
									OFFSET -10.230232 -0.198181 -2.204008
									CHANNELS 3 Xrotation Yrotation Zrotation
									JOINT mixamorig9:RightHandRing2
									{
										OFFSET -2.884499 0.000000 0.000000
										CHANNELS 3 Xrotation Yrotation Zrotation
										JOINT mixamorig9:RightHandRing3
										{
											OFFSET -2.646408 0.000000 0.000000
											CHANNELS 3 Xrotation Yrotation Zrotation
											JOINT mixamorig9:RightHandRing4
											{
												OFFSET -2.253517 0.000000 0.000000
												CHANNELS 3 Xrotation Yrotation Zrotation
												End Site
												{
													OFFSET -2.253494 0.000244 0.008396
												}
											}
										}
									}
								}
								JOINT mixamorig9:RightHandPinky1
								{
									OFFSET -8.863297 -0.363922 -4.365403
									CHANNELS 3 Xrotation Yrotation Zrotation
									JOINT mixamorig9:RightHandPinky2
									{
										OFFSET -2.535202 0.000000 0.000000
										CHANNELS 3 Xrotation Yrotation Zrotation
										JOINT mixamorig9:RightHandPinky3
										{
											OFFSET -2.269936 0.000000 0.000000
											CHANNELS 3 Xrotation Yrotation Zrotation
											JOINT mixamorig9:RightHandPinky4
											{
												OFFSET -1.728821 0.000000 0.000000
												CHANNELS 3 Xrotation Yrotation Zrotation
												End Site
												{
													OFFSET -1.728798 0.000198 0.008398
												}
											}
										}
									}
								}
							}
						}
					}
				}
			}
		}
	}
	JOINT mixamorig9:LeftUpLeg
	{
		OFFSET 9.840400 -6.511497 0.952000
		CHANNELS 3 Xrotation Yrotation Zrotation
		JOINT mixamorig9:LeftLeg
		{
			OFFSET 0.627035 -41.050404 -3.190753
			CHANNELS 3 Xrotation Yrotation Zrotation
			JOINT mixamorig9:LeftFoot
			{
				OFFSET -0.627030 -35.319065 0.072882
				CHANNELS 3 Xrotation Yrotation Zrotation
				JOINT mixamorig9:LeftToeBase
				{
					OFFSET 1.465637 -12.398554 15.189803
					CHANNELS 3 Xrotation Yrotation Zrotation
					JOINT mixamorig9:LeftToe_End
					{
						OFFSET 0.862418 0.262531 7.818803
						CHANNELS 3 Xrotation Yrotation Zrotation
						End Site
						{
							OFFSET 0.862418 0.262531 7.818802
						}
					}
				}
			}
		}
	}
	JOINT mixamorig9:RightUpLeg
	{
		OFFSET -9.840400 -6.511497 0.242600
		CHANNELS 3 Xrotation Yrotation Zrotation
		JOINT mixamorig9:RightLeg
		{
			OFFSET -0.627002 -41.050419 -2.758945
			CHANNELS 3 Xrotation Yrotation Zrotation
			JOINT mixamorig9:RightFoot
			{
				OFFSET 0.627006 -35.319042 0.384006
				CHANNELS 3 Xrotation Yrotation Zrotation
				JOINT mixamorig9:RightToeBase
				{
					OFFSET -1.465701 -12.398558 15.694283
					CHANNELS 3 Xrotation Yrotation Zrotation
					JOINT mixamorig9:RightToe_End
					{
						OFFSET -0.862436 0.262525 7.962027
						CHANNELS 3 Xrotation Yrotation Zrotation
						End Site
						{
							OFFSET -0.862436 0.262525 7.962027
						}
					}
				}
			}
		}
	}
}
MOTION
Frames: 4
Frame Time: 0.033333
0.601023 96.368782 -1.600056 -2.087503 -4.145154 -1.336859 4.029224 1.591246 2.927956 2.327580 0.436090 2.793942 2.303153 0.456977 2.797376 16.621183 0.246683 0.658294 16.617370 0.218158 0.690436 -0.000001 0.000000 0.000000 1.196025 -18.070582 -11.448860 -0.064984 -4.998946 -72.419984 -0.000003 -0.460339 0.000012 -43.176662 -9.532063 -2.887891 -4.574163 -5.864639 5.319643 7.984169 17.375335 19.110687 -14.077086 2.887729 8.977151 0.000004 -0.000001 0.000000 1.996707 -1.555197 5.204341 0.260837 1.730318 -17.144770 0.054442 0.797534 -7.807199 -0.000000 -0.000001 0.000000 0.062951 2.384839 0.869743 0.239176 1.658428 -16.411512 0.270540 1.761401 -17.462791 0.000000 -0.000000 -0.000000 0.252890 3.857420 -12.304034 0.339013 1.965756 -19.568248 0.238942 1.657646 -16.403432 0.000000 -0.000001 0.000001 1.169577 8.737684 -12.828059 0.209078 1.552679 -15.337699 0.179198 1.439292 -14.192706 0.000001 -0.000000 -0.000003 0.926596 14.391067 16.461845 8.493715 17.970187 56.750529 0.000034 7.214212 0.000004 -22.773796 2.604728 2.090355 -2.700664 3.781160 -0.957935 8.263731 -20.030197 -17.848514 -16.042735 -2.052905 -12.113466 -0.000001 0.000004 -0.000000 1.052459 -0.345363 -5.305808 0.105804 -0.988148 12.223731 0.005692 -0.230159 2.826544 -0.000001 0.000000 -0.000001 -0.005237 -2.374772 9.835024 0.157614 -1.202560 14.932728 0.179342 -1.281285 15.935974 -0.000001 -0.000001 -0.000003 -0.820616 -1.475981 25.253096 0.309683 -1.671512 20.991065 0.224413 -1.429654 17.840335 0.000000 0.000001 0.000001 0.043416 -4.012087 32.005778 0.196083 -1.338477 16.667656 0.170245 -1.248978 15.523732 0.000000 -0.000001 -0.000003 -13.384564 13.833701 8.225431 14.725446 1.763719 3.972716 0.580669 0.869877 -7.128034 -4.980937 0.000000 0.000006 0.000000 0.000002 -0.000000 -4.105079 -10.311454 1.066924 13.337289 -10.130730 -3.681208 -6.926114 -2.831910 3.908033 -7.257151 0.000012 -0.000004 -0.000000 0.000001 -0.000000 
0.597492 96.361961 -1.573137 -2.192140 -4.135718 -1.378031 3.994996 1.588961 2.898646 2.270181 0.433454 2.740723 2.245717 0.454575 2.744010 16.303494 0.147237 0.996456 16.299557 0.120269 1.028486 -0.000001 0.000000 -0.000001 1.192167 -18.014895 -11.463448 -0.028840 -5.453028 -72.605075 -0.000001 -0.670443 0.000007 -42.774306 -9.722829 -2.859972 -4.273116 -5.139453 5.119339 8.233043 17.954455 18.986461 -14.056223 2.942228 8.982239 0.000003 0.000003 -0.000002 1.971298 -1.503739 4.592296 0.262566 1.735876 -17.201662 0.055222 0.803309 -7.864052 -0.000002 0.000000 0.000001 0.062972 2.435637 0.578054 0.239191 1.658478 -16.412016 0.270689 1.761879 -17.467657 -0.000000 0.000000 0.000001 0.262441 3.897556 -12.446976 0.342319 1.974988 -19.664002 0.241641 1.666847 -16.497275 -0.000000 0.000000 -0.000001 1.248234 8.511321 -14.201214 0.219735 1.591074 -15.726873 0.189244 1.478384 -14.586753 0.000001 0.000001 -0.000003 0.935334 14.364668 16.418217 8.623168 18.294168 56.871287 0.000016 7.173987 -0.000000 -22.579629 2.258791 3.085589 -2.119552 1.975310 -2.969334 8.770980 -21.256175 -17.669652 -15.891776 -2.829836 -12.410987 0.000001 -0.000001 0.000001 0.799067 0.781494 -2.319133 0.129339 -1.091067 13.520219 0.012261 -0.338104 4.154163 0.000000 0.000000 -0.000001 -0.006530 -2.397478 10.254427 0.170909 -1.251402 15.554559 0.193529 -1.329909 16.557926 -0.000001 0.000001 -0.000001 -0.650730 -1.618852 23.348611 0.314075 -1.682904 21.141080 0.228689 -1.442904 18.011460 0.000000 -0.000001 -0.000001 0.355462 -4.314032 28.509944 0.195617 -1.336936 16.647932 0.172657 -1.257611 15.633618 -0.000001 -0.000001 -0.000004 -13.257664 13.833067 8.262081 14.714811 1.738414 3.977525 0.561296 0.869864 -7.140248 -4.985734 -0.000009 0.000006 0.000000 -0.000001 0.000000 -3.951832 -10.335131 1.104718 13.312127 -10.131872 -3.681423 -6.943149 -2.817686 3.912878 -7.266190 0.000008 -0.000006 -0.000000 0.000004 0.000000 
0.585319 96.354729 -1.550355 -2.284469 -4.117677 -1.441604 3.946660 1.583186 2.862587 2.193792 0.420986 2.673299 2.169288 0.440832 2.676555 15.885727 0.023531 1.401392 15.881834 -0.001552 1.433268 -0.000002 0.000000 0.000001 1.186660 -17.965476 -11.490802 0.009110 -6.006342 -72.701148 0.000009 -0.891647 -0.000002 -42.240550 -9.928584 -2.763591 -3.613671 -3.696060 4.912217 8.802264 19.243629 18.696719 -13.991267 3.105849 8.997626 0.000001 0.000004 -0.000000 2.012144 -1.363344 3.478074 0.264868 1.743267 -17.277146 0.056284 0.810954 -7.939475 0.000001 0.000000 -0.000001 0.063854 2.594589 0.056895 0.239097 1.658174 -16.408802 0.270682 1.761834 -17.467321 0.000001 -0.000001 -0.000002 0.290295 4.006583 -13.018053 0.347507 1.989458 -19.814201 0.245928 1.681206 -16.643421 0.000001 -0.000000 -0.000001 1.360831 8.256436 -16.228833 0.235346 1.645384 -16.278636 0.203939 1.533768 -15.146356 0.000000 -0.000001 0.000003 0.950631 14.369429 16.341151 8.819260 18.780710 57.013928 0.000009 7.125926 -0.000007 -22.381027 1.741994 4.354287 -1.781757 0.435197 -3.901631 9.528577 -23.035645 -17.392899 -15.673442 -3.305648 -12.603296 0.000000 0.000002 0.000000 0.512647 1.412480 0.641992 0.166133 -1.234049 15.333389 0.025360 -0.486033 5.977371 0.000000 0.000001 0.000002 0.008030 -2.513555 10.825934 0.184034 -1.297652 16.144989 0.207451 -1.375851 17.147547 -0.000001 0.000000 -0.000003 -0.515119 -1.822287 22.307393 0.318941 -1.695461 21.306683 0.233308 -1.457036 18.194144 -0.000001 0.000000 0.000000 0.558149 -4.598633 26.315797 0.196111 -1.338611 16.669393 0.174715 -1.264981 15.727788 0.000000 0.000000 -0.000002 -13.145558 13.829828 8.324377 14.687217 1.713105 3.989867 0.544544 0.870201 -7.166355 -4.989960 -0.000007 0.000006 0.000000 0.000000 0.000000 -3.777846 -10.350478 1.183952 13.222439 -10.133513 -3.686015 -6.925755 -2.819132 3.905096 -7.270435 -0.000003 -0.000004 -0.000000 0.000002 -0.000000 
0.557105 96.347153 -1.533459 -2.349674 -4.099370 -1.535516 3.883821 1.570924 2.824768 2.096282 0.399842 2.597887 2.071614 0.419109 2.600895 15.395492 -0.111840 1.826831 15.391585 -0.134842 1.858511 -0.000001 0.000000 0.000000 1.181998 -17.907089 -11.510979 0.079843 -6.757929 -72.702173 -0.000004 -1.117981 -0.000005 -41.559580 -10.076058 -2.516944 -2.754643 -1.916136 4.766316 9.564570 20.898162 18.302793 -13.899788 3.335751 9.019048 0.000003 0.000006 -0.000004 2.045538 -1.197297 2.018248 0.267078 1.750382 -17.349975 0.057325 0.818343 -8.012267 -0.000001 -0.000000 -0.000000 0.069352 2.787870 -0.768100 0.239185 1.658499 -16.412171 0.270945 1.762694 -17.476026 0.000001 0.000001 0.000002 0.320030 4.108450 -13.887873 0.353964 2.007281 -19.999363 0.251332 1.699204 -16.827062 0.000001 -0.000001 0.000004 1.465397 8.040203 -18.305296 0.249324 1.692542 -16.759068 0.217256 1.582123 -15.636113 -0.000000 -0.000001 0.000001 0.964154 14.401362 16.254677 9.132895 19.481895 57.125158 -0.000002 7.104426 0.000006 -22.080518 1.149933 5.466904 -1.626931 -0.358705 -4.396602 10.376088 -24.951596 -17.071776 -15.546385 -3.552213 -12.703621 0.000000 -0.000001 0.000001 0.262326 1.674699 3.400981 0.205195 -1.368563 17.053912 0.042084 -0.625298 7.699293 -0.000000 -0.000000 -0.000001 0.022337 -2.628825 11.580249 0.195052 -1.335040 16.623610 0.219084 -1.412994 17.625616 0.000000 -0.000000 -0.000001 -0.400035 -2.060035 21.852050 0.322360 -1.704144 21.421159 0.236612 -1.467009 18.323062 0.000000 -0.000000 0.000001 0.619327 -4.887661 25.190578 0.197809 -1.344252 16.741712 0.177053 -1.273218 15.832889 0.000001 0.000000 -0.000004 -13.065964 13.824547 8.427645 14.639617 1.684749 4.009038 0.528620 0.870919 -7.197557 -4.994943 -0.000005 0.000004 0.000000 0.000002 0.000000 -3.584449 -10.341258 1.328248 13.037334 -10.135822 -3.702526 -6.856582 -2.845363 3.878294 -7.272299 0.000001 -0.000005 0.000000 -0.000003 -0.000000 
